<mxfile host="app.diagrams.net" agent="Mozilla/5.0 (Windows NT 10.0; Win64; x64) AppleWebKit/537.36 (KHTML, like Gecko) Chrome/130.0.0.0 Safari/537.36" version="24.8.6">
  <diagram name="Trang-1" id="DDn5t0dXCg2Qd7ixJbf5">
    <mxGraphModel dx="1050" dy="565" grid="1" gridSize="10" guides="1" tooltips="1" connect="1" arrows="1" fold="1" page="1" pageScale="1" pageWidth="827" pageHeight="1169" math="0" shadow="0">
      <root>
        <mxCell id="0" />
        <mxCell id="1" parent="0" />
        <mxCell id="aFhMdP33Zm7j77UQvJWl-29" style="edgeStyle=orthogonalEdgeStyle;rounded=0;orthogonalLoop=1;jettySize=auto;html=1;entryX=0.5;entryY=0;entryDx=0;entryDy=0;" edge="1" parent="1" source="aFhMdP33Zm7j77UQvJWl-1" target="aFhMdP33Zm7j77UQvJWl-2">
          <mxGeometry relative="1" as="geometry" />
        </mxCell>
        <mxCell id="aFhMdP33Zm7j77UQvJWl-1" value="start" style="ellipse;whiteSpace=wrap;html=1;" vertex="1" parent="1">
          <mxGeometry x="20" y="50" width="120" height="60" as="geometry" />
        </mxCell>
        <mxCell id="aFhMdP33Zm7j77UQvJWl-8" style="edgeStyle=orthogonalEdgeStyle;rounded=0;orthogonalLoop=1;jettySize=auto;html=1;entryX=0;entryY=0.5;entryDx=0;entryDy=0;" edge="1" parent="1" source="aFhMdP33Zm7j77UQvJWl-2" target="aFhMdP33Zm7j77UQvJWl-3">
          <mxGeometry relative="1" as="geometry" />
        </mxCell>
        <mxCell id="aFhMdP33Zm7j77UQvJWl-2" value="giá trị biến a" style="shape=parallelogram;perimeter=parallelogramPerimeter;whiteSpace=wrap;html=1;fixedSize=1;" vertex="1" parent="1">
          <mxGeometry x="20" y="160" width="120" height="60" as="geometry" />
        </mxCell>
        <mxCell id="aFhMdP33Zm7j77UQvJWl-9" style="edgeStyle=orthogonalEdgeStyle;rounded=0;orthogonalLoop=1;jettySize=auto;html=1;entryX=0.5;entryY=0;entryDx=0;entryDy=0;" edge="1" parent="1" source="aFhMdP33Zm7j77UQvJWl-3" target="aFhMdP33Zm7j77UQvJWl-7">
          <mxGeometry relative="1" as="geometry" />
        </mxCell>
        <mxCell id="aFhMdP33Zm7j77UQvJWl-23" style="edgeStyle=orthogonalEdgeStyle;rounded=0;orthogonalLoop=1;jettySize=auto;html=1;" edge="1" parent="1" source="aFhMdP33Zm7j77UQvJWl-3" target="aFhMdP33Zm7j77UQvJWl-18">
          <mxGeometry relative="1" as="geometry" />
        </mxCell>
        <mxCell id="aFhMdP33Zm7j77UQvJWl-3" value="a &amp;lt; 4" style="rhombus;whiteSpace=wrap;html=1;" vertex="1" parent="1">
          <mxGeometry x="230" y="150" width="100" height="80" as="geometry" />
        </mxCell>
        <mxCell id="aFhMdP33Zm7j77UQvJWl-27" style="edgeStyle=orthogonalEdgeStyle;rounded=0;orthogonalLoop=1;jettySize=auto;html=1;" edge="1" parent="1" source="aFhMdP33Zm7j77UQvJWl-4" target="aFhMdP33Zm7j77UQvJWl-22">
          <mxGeometry relative="1" as="geometry" />
        </mxCell>
        <mxCell id="aFhMdP33Zm7j77UQvJWl-4" value="9 &amp;lt; a &amp;lt;=10" style="rhombus;whiteSpace=wrap;html=1;" vertex="1" parent="1">
          <mxGeometry x="240" y="620" width="80" height="80" as="geometry" />
        </mxCell>
        <mxCell id="aFhMdP33Zm7j77UQvJWl-12" style="edgeStyle=orthogonalEdgeStyle;rounded=0;orthogonalLoop=1;jettySize=auto;html=1;entryX=0.5;entryY=0;entryDx=0;entryDy=0;" edge="1" parent="1" source="aFhMdP33Zm7j77UQvJWl-5" target="aFhMdP33Zm7j77UQvJWl-4">
          <mxGeometry relative="1" as="geometry" />
        </mxCell>
        <mxCell id="aFhMdP33Zm7j77UQvJWl-26" style="edgeStyle=orthogonalEdgeStyle;rounded=0;orthogonalLoop=1;jettySize=auto;html=1;entryX=0;entryY=0.5;entryDx=0;entryDy=0;" edge="1" parent="1" source="aFhMdP33Zm7j77UQvJWl-5" target="aFhMdP33Zm7j77UQvJWl-21">
          <mxGeometry relative="1" as="geometry" />
        </mxCell>
        <mxCell id="aFhMdP33Zm7j77UQvJWl-5" value="8 &amp;lt; a &amp;lt;= 9" style="rhombus;whiteSpace=wrap;html=1;" vertex="1" parent="1">
          <mxGeometry x="240" y="505" width="80" height="80" as="geometry" />
        </mxCell>
        <mxCell id="aFhMdP33Zm7j77UQvJWl-11" style="edgeStyle=orthogonalEdgeStyle;rounded=0;orthogonalLoop=1;jettySize=auto;html=1;entryX=0.5;entryY=0;entryDx=0;entryDy=0;" edge="1" parent="1" source="aFhMdP33Zm7j77UQvJWl-6" target="aFhMdP33Zm7j77UQvJWl-5">
          <mxGeometry relative="1" as="geometry" />
        </mxCell>
        <mxCell id="aFhMdP33Zm7j77UQvJWl-25" style="edgeStyle=orthogonalEdgeStyle;rounded=0;orthogonalLoop=1;jettySize=auto;html=1;" edge="1" parent="1" source="aFhMdP33Zm7j77UQvJWl-6" target="aFhMdP33Zm7j77UQvJWl-20">
          <mxGeometry relative="1" as="geometry" />
        </mxCell>
        <mxCell id="aFhMdP33Zm7j77UQvJWl-6" value="6 &amp;lt; a &amp;lt;= 8" style="rhombus;whiteSpace=wrap;html=1;" vertex="1" parent="1">
          <mxGeometry x="240" y="390" width="80" height="80" as="geometry" />
        </mxCell>
        <mxCell id="aFhMdP33Zm7j77UQvJWl-10" style="edgeStyle=orthogonalEdgeStyle;rounded=0;orthogonalLoop=1;jettySize=auto;html=1;entryX=0.5;entryY=0;entryDx=0;entryDy=0;" edge="1" parent="1" source="aFhMdP33Zm7j77UQvJWl-7" target="aFhMdP33Zm7j77UQvJWl-6">
          <mxGeometry relative="1" as="geometry" />
        </mxCell>
        <mxCell id="aFhMdP33Zm7j77UQvJWl-24" style="edgeStyle=orthogonalEdgeStyle;rounded=0;orthogonalLoop=1;jettySize=auto;html=1;entryX=0;entryY=0.5;entryDx=0;entryDy=0;" edge="1" parent="1" source="aFhMdP33Zm7j77UQvJWl-7" target="aFhMdP33Zm7j77UQvJWl-19">
          <mxGeometry relative="1" as="geometry" />
        </mxCell>
        <mxCell id="aFhMdP33Zm7j77UQvJWl-7" value="4 &amp;lt;= a &amp;lt;= 6" style="rhombus;whiteSpace=wrap;html=1;" vertex="1" parent="1">
          <mxGeometry x="240" y="260" width="80" height="80" as="geometry" />
        </mxCell>
        <mxCell id="aFhMdP33Zm7j77UQvJWl-31" style="edgeStyle=orthogonalEdgeStyle;rounded=0;orthogonalLoop=1;jettySize=auto;html=1;entryX=0.5;entryY=0;entryDx=0;entryDy=0;" edge="1" parent="1" source="aFhMdP33Zm7j77UQvJWl-18" target="aFhMdP33Zm7j77UQvJWl-30">
          <mxGeometry relative="1" as="geometry" />
        </mxCell>
        <mxCell id="aFhMdP33Zm7j77UQvJWl-18" value="không đạt" style="shape=parallelogram;perimeter=parallelogramPerimeter;whiteSpace=wrap;html=1;fixedSize=1;" vertex="1" parent="1">
          <mxGeometry x="380" y="160" width="120" height="60" as="geometry" />
        </mxCell>
        <mxCell id="aFhMdP33Zm7j77UQvJWl-35" style="edgeStyle=orthogonalEdgeStyle;rounded=0;orthogonalLoop=1;jettySize=auto;html=1;" edge="1" parent="1" source="aFhMdP33Zm7j77UQvJWl-19">
          <mxGeometry relative="1" as="geometry">
            <mxPoint x="730" y="300" as="targetPoint" />
          </mxGeometry>
        </mxCell>
        <mxCell id="aFhMdP33Zm7j77UQvJWl-19" value="trung bình&amp;nbsp;" style="shape=parallelogram;perimeter=parallelogramPerimeter;whiteSpace=wrap;html=1;fixedSize=1;" vertex="1" parent="1">
          <mxGeometry x="370" y="270" width="120" height="60" as="geometry" />
        </mxCell>
        <mxCell id="aFhMdP33Zm7j77UQvJWl-34" style="edgeStyle=orthogonalEdgeStyle;rounded=0;orthogonalLoop=1;jettySize=auto;html=1;" edge="1" parent="1" source="aFhMdP33Zm7j77UQvJWl-20">
          <mxGeometry relative="1" as="geometry">
            <mxPoint x="730" y="430" as="targetPoint" />
          </mxGeometry>
        </mxCell>
        <mxCell id="aFhMdP33Zm7j77UQvJWl-20" value="khá" style="shape=parallelogram;perimeter=parallelogramPerimeter;whiteSpace=wrap;html=1;fixedSize=1;" vertex="1" parent="1">
          <mxGeometry x="370" y="400" width="120" height="60" as="geometry" />
        </mxCell>
        <mxCell id="aFhMdP33Zm7j77UQvJWl-33" style="edgeStyle=orthogonalEdgeStyle;rounded=0;orthogonalLoop=1;jettySize=auto;html=1;" edge="1" parent="1" source="aFhMdP33Zm7j77UQvJWl-21">
          <mxGeometry relative="1" as="geometry">
            <mxPoint x="730" y="545" as="targetPoint" />
          </mxGeometry>
        </mxCell>
        <mxCell id="aFhMdP33Zm7j77UQvJWl-21" value="giỏi" style="shape=parallelogram;perimeter=parallelogramPerimeter;whiteSpace=wrap;html=1;fixedSize=1;" vertex="1" parent="1">
          <mxGeometry x="370" y="515" width="120" height="60" as="geometry" />
        </mxCell>
        <mxCell id="aFhMdP33Zm7j77UQvJWl-32" style="edgeStyle=orthogonalEdgeStyle;rounded=0;orthogonalLoop=1;jettySize=auto;html=1;" edge="1" parent="1" source="aFhMdP33Zm7j77UQvJWl-22">
          <mxGeometry relative="1" as="geometry">
            <mxPoint x="730" y="660" as="targetPoint" />
          </mxGeometry>
        </mxCell>
        <mxCell id="aFhMdP33Zm7j77UQvJWl-22" value="xuất sắc" style="shape=parallelogram;perimeter=parallelogramPerimeter;whiteSpace=wrap;html=1;fixedSize=1;" vertex="1" parent="1">
          <mxGeometry x="370" y="630" width="120" height="60" as="geometry" />
        </mxCell>
        <mxCell id="aFhMdP33Zm7j77UQvJWl-30" value="end" style="ellipse;whiteSpace=wrap;html=1;" vertex="1" parent="1">
          <mxGeometry x="670" y="690" width="120" height="80" as="geometry" />
        </mxCell>
      </root>
    </mxGraphModel>
  </diagram>
</mxfile>
